<mxfile host="app.diagrams.net" modified="2023-07-06T07:46:15.835Z" agent="Mozilla/5.0 (Windows NT 10.0; Win64; x64) AppleWebKit/537.36 (KHTML, like Gecko) Chrome/114.0.0.0 Safari/537.36" version="21.3.7" etag="iw7FfiAO4Xl0Jl63SAkI" type="github">
  <diagram name="PÃ¡gina-1" id="lMqvIejlg4ROaFdTOJQR">
    <mxGraphModel>
      <root>
        <mxCell id="0" />
        <mxCell id="1" parent="0" />
      </root>
    </mxGraphModel>
  </diagram>
</mxfile>
